<!--?xml version="1.0" encoding="utf-8"?-->
<!-- Generator: Adobe Illustrator 19.1.1, SVG Export Plug-In . SVG Version: 6.00 Build 0)  -->
<svg version="1.1" id="_x31_0" xmlns="http://www.w3.org/2000/svg" xmlns:xlink="http://www.w3.org/1999/xlink" x="0px" y="0px" viewBox="0 0 512 512" style="width: 256px; height: 256px; opacity: 1;" xml:space="preserve">
<style type="text/css">
	.st0{fill:#eeeeee;}
</style>
<g>
	<path class="st0" d="M503.95,13.502l-36.977-8.567c-0.488-0.101-0.984,0.035-1.477,0.012c-0.164-0.012-0.328-0.05-0.492-0.05
		c-0.121,0-0.23,0.05-0.351,0.054c-1.969,0.07-3.926,0.516-5.641,1.722l-14.531,11.582l-0.473-0.473l1.34-1.34L430.227,1.318
		l-11.851,11.851l13.027,13.024l1.363,1.39l-8.172,6.516l-0.93-0.93l1.226-1.227l0.114-0.117l-15.125-15.122l-11.848,11.848
		l13.457,13.457l1.387,1.414l-8.172,6.515l-1.386-1.386l1.343-1.34l-15.125-15.125l-11.851,11.851l14.949,14.946l0.062,0.066
		l0.114,0.114l1.34-1.34l0.339,0.355l-10.109,8.055l-6.555,21.343L253.871,211.432l-15.161,15.129
		c-2.602-3.34-2.312-13.668,6.566-26.699c8.024-11.754,13.098-19.386,15.914-26.336c5.988-14.774,0.898-25.386-4.43-31.68
		c-8.786-10.445-22.102-14.117-35.817-10.094c-10.472,3.09-21.613,10.645-34.07,23.102c-20.242,20.242-26.238,34.797-33.183,51.649
		l-0.29,0.699c-1.82,4.394-3.706,8.953-6.031,14.019c-8.23,17.997-27.328,27.809-41.898,32.867c-1.801,0.63-3.691,1.262-5.672,1.93
		l-1.812,0.613c-20.461,6.867-48.481,16.282-68.454,36.25c-18.156,18.156-28.914,43.098-29.508,68.418
		c-0.37,15.989,3.126,32.207,10.387,48.211c7.882,17.332,20.297,34.547,36.914,51.168c31.906,31.906,64.114,48.703,95.715,49.934
		c24.641,0.973,48.516-8.21,65.512-25.21c20.453-20.45,27.894-45.379,33.324-63.578l-1.191-0.371l-0.086-0.039l1.285,0.383
		c1.238-4.161,2.41-8.098,3.566-11.34c4.562-12.84,10.618-21.926,28.066-30.356c22.547-10.882,29.02-14.305,42.91-28.199
		c7.898-7.894,12.981-16.05,15.118-24.238c2.843-10.957,0.254-21.461-7.11-28.824c-4.383-4.386-12.278-9.129-24.977-6.824
		c-4.961,0.894-9.508,2.648-13.176,4.062c-0.973,0.382-1.894,0.73-2.613,0.992c-13.531,4.801-17.297,2.855-23.242-3.09
		c-0.207-0.207-4.898-4.989-4.946-12.223l159.875-159.871l19.906-4.226l8.078-9.527l0.566-0.649l1.398,1.398l-1.226,1.227
		l-0.114,0.117l15.122,15.121l11.714-11.71l0.023-0.027l0.114-0.11l-15.125-15.125l-1.34,1.339l-2.16-2.16l7.484-8.828l0.504-0.574
		l2.07,2.074l-1.336,1.336l15.125,15.125l11.848-11.847l-15.125-15.126l-1.34,1.34l-2.828-2.828l7.453-8.789l0.535-0.614
		l1.848,1.851l-1.219,1.219l-0.004,0.004v0.004l-0.113,0.113l15.125,15.122l11.711-11.711l0.023-0.023l0.114-0.114l-15.122-15.125
		l-1.344,1.34l-2.613-2.614l24.656-29.07c2.234-2.805,2.832-6.484,1.602-9.863C510.145,16.638,507.348,14.225,503.95,13.502z
		 M426.649,47.123c0,0,0,0,0.011-0.012c0.18-0.371,0.426-0.73,0.734-1.039c0.539-0.538,1.199-0.878,1.891-1.046
		c1.285-0.305,2.699,0.046,3.699,1.046c1.542,1.543,1.531,4.043-0.008,5.582c-1.539,1.539-4.035,1.543-5.574,0
		C426.18,50.432,425.919,48.596,426.649,47.123z M403.957,63.936c0.825-0.825,1.93-1.211,3.016-1.141
		c0.93,0.039,1.84,0.426,2.558,1.144c1.547,1.547,1.547,4.039,0.008,5.578c-1.543,1.543-4.043,1.547-5.59,0
		c-0.938-0.938-1.297-2.226-1.098-3.445C402.992,65.287,403.352,64.537,403.957,63.936z M394.859,111.94l-64.05,64.05
		l-71.993,71.993l-0.613,0.609l-19.562,19.566l-24.813,24.813l-2.778,2.778l-5.527-5.527l2.778-2.778l38.508-38.508l8.034-8.035
		l2.43-2.43l68.007-68.008l64.051-64.051L394.859,111.94z M211.851,318.385c-1.32,1.32-3.446,1.32-4.766,0.004
		c-0.222-0.227-0.402-0.473-0.547-0.727c-0.73-1.289-0.546-2.945,0.551-4.038c1.094-1.098,2.754-1.282,4.039-0.551
		c0.254,0.145,0.5,0.328,0.722,0.551C213.168,314.94,213.168,317.069,211.851,318.385z M239.371,238.971l7.058-7.058l70.152-70.149
		l64.047-64.051l5.051,5.051l-64.047,64.047l-65.614,65.613l-8.16,8.161l-7.351,7.351l-35.86,35.859l-2.777,2.778l-5.051-5.051
		l2.782-2.777l33.234-33.238L239.371,238.971z M148.301,358.498l-5.528-5.527l40.914-40.914l5.531,5.527L148.301,358.498z
		 M149.101,381.135c-1.316,1.317-3.445,1.317-4.762,0c-1.254-1.258-1.312-3.234-0.183-4.55c0.046-0.078,0.121-0.153,0.183-0.211
		c1.098-1.102,2.754-1.281,4.039-0.55c0.254,0.144,0.504,0.324,0.726,0.546C150.422,377.686,150.422,379.815,149.101,381.135z
		 M134.07,344.272l40.918-40.918l5.05,5.05l-40.918,40.918L134.07,344.272z M137.003,369.033c-0.062,0.062-0.136,0.137-0.218,0.184
		c-1.313,1.125-3.297,1.062-4.547-0.188c-1.254-1.25-1.308-3.226-0.183-4.542c0.05-0.082,0.121-0.153,0.183-0.215
		c1.321-1.32,3.45-1.32,4.766-0.004C138.312,365.577,138.324,367.713,137.003,369.033z M182.879,289.413
		c1.317-1.317,3.454-1.309,4.762,0c0.227,0.226,0.406,0.469,0.559,0.73c0.73,1.285,0.538,2.942-0.555,4.035
		c-1.098,1.098-2.746,1.285-4.035,0.554c-0.262-0.152-0.507-0.332-0.73-0.554C181.571,292.869,181.559,290.733,182.879,289.413z
		 M192.859,321.225l5.058,5.059L157,367.201l-5.055-5.058L192.859,321.225z M194.984,306.288c-1.316-1.321-1.316-3.446,0.004-4.766
		c1.317-1.317,3.446-1.317,4.762,0c1.309,1.308,1.321,3.445,0.004,4.766C198.434,307.608,196.297,307.596,194.984,306.288z
		 M290.129,315.28c6.32-2.238,16.246-7.176,20.645-2.778c4.672,4.668,3.5,14.222-8.008,25.73
		c-11.516,11.516-15.906,13.969-37.656,24.473c-22.086,10.672-31.516,23.406-37.871,41.27c-6.352,17.867-10.91,46.321-32.348,67.762
		c-21.434,21.434-70.18,38.993-133.898-24.722c-63.715-63.718-41.41-116.848-17.79-140.465
		c19.055-19.059,48.375-27.18,68.618-34.207c21.894-7.606,43.082-21.122,53.121-43.074c11.465-25.023,12.969-38.121,35.598-60.75
		c21.618-21.617,33.813-21.918,40.555-15.175c0.309,0.308,0.621,0.648,0.914,0.988c5.816,6.886,1.804,13.394-12.688,34.637
		c-14.492,21.238-14.293,41.285-3.973,51.61c0.485,0.484,0.985,0.938,1.527,1.367l-34.816,34.812l-3.129-3.129
		c-2.461-2.461-6.461-2.461-8.934,0.008l-12.894,12.894c-2.469,2.469-2.469,6.469-0.008,8.93l3.133,3.133l-40.918,40.914
		l-3.129-3.129c-2.461-2.461-6.461-2.461-8.934,0.008l-12.89,12.89c-2.469,2.469-2.473,6.473-0.012,8.934l38.711,38.711
		c2.461,2.461,6.473,2.465,8.942-0.004l12.89-12.89c2.473-2.469,2.461-6.481,0-8.942l-3.121-3.122l40.914-40.914l3.126,3.121
		c2.461,2.461,6.468,2.469,8.937,0l12.895-12.894c2.472-2.469,2.461-6.481,0-8.942l-3.122-3.121l10.258-10.258l3.98-3.895
		c2.11,5.391,5.172,9.742,8.012,12.582C260.59,321.467,273.727,321.112,290.129,315.28z M124.895,356.928
		c-0.062,0.059-0.133,0.133-0.215,0.184c-1.316,1.125-3.293,1.066-4.547-0.187c-1.312-1.309-1.32-3.446-0.003-4.762
		c1.32-1.32,3.457-1.312,4.766,0c0.222,0.223,0.402,0.469,0.546,0.738C126.179,354.178,125.992,355.83,124.895,356.928z
		 M339.508,184.693l-77.813,77.813l-17.07,17.07l-7.981,7.98l-14.113,14.114l-2.782,2.782l-5.054-5.059l2.778-2.777l18.843-18.844
		l14.543-14.547l4.883-4.882l3.488-3.485l0.602-0.602l74.621-74.621l64.051-64.051l5.054,5.059L339.508,184.693z M406.02,99.287
		l-5.614-5.613l28.164-28.168c1.547-1.547,4.062-1.539,5.614,0.011c1.546,1.547,1.546,4.055,0,5.602L406.02,99.287z M438.836,98.814
		c-0.961,0.961-2.293,1.328-3.546,1.09c-0.746-0.145-1.454-0.5-2.035-1.082c-1.539-1.539-1.543-4.047,0-5.59
		c1.542-1.539,4.038-1.531,5.582,0.011c0.414,0.414,0.722,0.895,0.914,1.406l-0.008,0.008
		C440.266,96.053,439.961,97.689,438.836,98.814z M450.852,28.205c1.538-1.538,4.031-1.534,5.57,0.004
		c1.538,1.539,1.55,4.039,0.007,5.578c-1.546,1.55-4.046,1.539-5.59,0C449.301,32.248,449.301,29.756,450.852,28.205z
		 M457.774,73.401c-0.152,0.722-0.508,1.414-1.07,1.976c-0.406,0.406-0.875,0.699-1.375,0.898c-1.414,0.539-3.074,0.231-4.21-0.902
		c-1.539-1.543-1.539-4.035,0-5.578c1.542-1.539,4.042-1.547,5.586-0.008c0.973,0.977,1.332,2.336,1.078,3.606L457.774,73.401z
		 M474.567,51.924c-1.55,1.55-4.042,1.547-5.582,0.008c-1.539-1.539-1.551-4.039,0-5.59c1.539-1.538,4.039-1.531,5.578,0.008
		C476.106,47.893,476.106,50.381,474.567,51.924z"></path>
	<path class="st0" d="M85.601,361.651c-3.351-3.352-8.797-3.352-12.148,0l-16.817,16.816c-3.351,3.348-3.351,8.797,0,12.145
		l54.024,54.023c3.351,3.352,8.797,3.352,12.148,0l16.817-16.816c3.347-3.348,3.347-8.797,0-12.149L85.601,361.651z
		 M116.731,436.421l-51.879-51.879l14.672-14.672l51.77,51.77l0.109,0.11L116.731,436.421z"></path>
	<path class="st0" d="M189.637,411.678c-2.75,2.75-2.742,7.187,0,9.93c2.738,2.734,7.175,2.746,9.926,0
		c2.738-2.742,2.738-7.187,0-9.93C196.82,408.94,192.375,408.94,189.637,411.678z"></path>
	<path class="st0" d="M170.445,420.944c-2.738-2.738-7.183-2.742-9.926,0c-2.738,2.742-2.738,7.188,0,9.926
		c2.742,2.738,7.187,2.738,9.926,0C173.187,428.132,173.187,423.686,170.445,420.944z"></path>
	<path class="st0" d="M169.328,448.663c-2.742,2.742-2.742,7.187,0,9.922c2.734,2.742,7.183,2.742,9.922,0
		c2.75-2.746,2.742-7.184,0-9.922C176.511,445.921,172.074,445.917,169.328,448.663z"></path>
</g>
</svg>
